<?xml version="1.0" encoding="utf-8"?>
<!-- Generator: Adobe Illustrator 22.0.1, SVG Export Plug-In . SVG Version: 6.00 Build 0)  -->
<svg version="1.1" id="Layer_1" xmlns="http://www.w3.org/2000/svg" xmlns:xlink="http://www.w3.org/1999/xlink" x="0px" y="0px"
	 viewBox="0 0 177 109.9" style="enable-background:new 0 0 177 109.9;" xml:space="preserve">
<style type="text/css">
	.st0{fill:#1D2749;}
	.st1{fill:#51BBB4;}
	.st2{fill:#1D2849;}
	.st3{fill:#FFFFFF;}
</style>
<g>
	<g>
		<g>
			<g>
				<g>
					<path class="st0" d="M40,50.8h-8.9c-0.2,0-0.3-0.1-0.3-0.3v-3.9c0-0.2,0.1-0.3,0.3-0.3H37c0.1,0,0.3,0,0.3-0.1
						c0.1,0,0.1-0.1,0.1-0.2v-1.7c0-0.2-0.1-0.3-0.4-0.3h-5.8c-0.2,0-0.3-0.1-0.3-0.3V40c0-0.2,0.1-0.3,0.4-0.3h8.4
						c0.3,0,0.5-0.1,0.5-0.4v-1.6c0-0.2-0.1-0.3-0.3-0.3H27.4c-0.3,0-0.4,0.1-0.4,0.4v15c0,0.3,0.1,0.4,0.5,0.4H40
						c0.1,0,0.3,0,0.3-0.1c0.1-0.1,0.1-0.1,0.1-0.2v-1.7C40.4,50.9,40.3,50.8,40,50.8z"/>
					<path class="st0" d="M59.7,52.4l-5.8-7.3c-0.1-0.1-0.1-0.2-0.1-0.3c0-0.1,0-0.2,0.1-0.3l5.3-6.7c0.1-0.1,0.1-0.2,0.1-0.3
						c0-0.1-0.1-0.1-0.3-0.1h-2.7c-0.2,0-0.3,0-0.4,0.1c-0.1,0.1-0.2,0.1-0.3,0.2l-3.6,4.8c-0.1,0.1-0.2,0.2-0.3,0.2
						c-0.1,0-0.2-0.1-0.3-0.2l-3.6-4.8l-0.2-0.2c-0.1,0-0.3-0.1-0.4-0.1h-3.2c-0.2,0-0.3,0.1-0.3,0.2c0,0.1,0,0.2,0,0.3l5.5,6.9
						c0.1,0.1,0.1,0.2,0.2,0.3c0,0.1,0,0.2-0.1,0.3l-5.6,7c-0.2,0.3-0.3,0.5-0.2,0.6c0.1,0.1,0.2,0.1,0.5,0.1h2.4
						c0.2,0,0.3,0,0.4-0.1c0.1,0,0.2-0.1,0.3-0.2l4-5.2c0.1-0.2,0.3-0.3,0.3-0.3c0.1,0,0.2,0.1,0.3,0.3l4,5.2
						c0.1,0.2,0.3,0.3,0.6,0.3h3c0.2,0,0.4-0.1,0.5-0.1C60,52.9,60,52.7,59.7,52.4z"/>
					<path class="st0" d="M73.5,37.8c-0.1-0.3-0.3-0.4-0.7-0.4h-3.2c-0.2,0-0.3,0-0.4,0.1c-0.1,0.1-0.1,0.2-0.2,0.3l-6.4,14.8
						c-0.1,0.1-0.1,0.3,0,0.4c0,0.1,0.1,0.1,0.3,0.1h2.5c0.1,0,0.3,0,0.3-0.1c0.1,0,0.1-0.1,0.1-0.2l1.5-3.5
						c0.1-0.1,0.2-0.2,0.3-0.2h6.6c0.1,0,0.2,0,0.3,0.1c0,0,0.1,0.1,0.1,0.1l1.5,3.4c0.1,0.2,0.2,0.3,0.5,0.3h3.1
						c0.1,0,0.2-0.1,0.3-0.2c0.1-0.1,0.1-0.2,0-0.3L73.5,37.8z M73.3,46.8h-4.9c-0.3,0-0.3-0.1-0.2-0.4l2.5-5.6
						c0-0.1,0.1-0.1,0.2-0.1c0.1,0,0.1,0,0.2,0.1l2.5,5.6C73.6,46.7,73.5,46.8,73.3,46.8z"/>
					<path class="st0" d="M103.5,37.4H99c-0.3,0-0.4,0.1-0.5,0.4l-4.4,9.9c-0.1,0.1-0.1,0.2-0.2,0.2c-0.1,0-0.1,0-0.2-0.2l-4.5-10
						c0-0.1-0.1-0.2-0.1-0.2c-0.1,0-0.2-0.1-0.4-0.1h-4.3c-0.3,0-0.4,0.1-0.4,0.4v14.9c0,0.3,0.1,0.4,0.5,0.4h2.2
						c0.2,0,0.3,0,0.4-0.1c0-0.1,0.1-0.1,0.1-0.3V41.8c0-0.1,0-0.1,0.1-0.2c0.1,0,0.1,0,0.1,0.1l4.8,11c0.1,0.2,0.3,0.3,0.5,0.3h1.8
						c0.3,0,0.4-0.1,0.5-0.3l4.8-11.1c0-0.1,0.1-0.1,0.1-0.1c0,0,0.1,0,0.1,0.1v11.1c0,0.1,0,0.2,0.1,0.3c0.1,0.1,0.2,0.1,0.4,0.1
						h2.7c0.4,0,0.6-0.1,0.6-0.5V37.8C103.8,37.5,103.7,37.4,103.5,37.4z"/>
					<path class="st0" d="M112.5,37.4h-3c-0.3,0-0.4,0.1-0.4,0.4v15c0,0.1,0,0.2,0.1,0.3c0.1,0.1,0.2,0.1,0.4,0.1h2.7
						c0.2,0,0.4,0,0.5-0.1c0.1-0.1,0.1-0.2,0.1-0.4V37.8C112.8,37.5,112.7,37.4,112.5,37.4z"/>
					<path class="st0" d="M133,37.4h-2.4c-0.3,0-0.4,0.1-0.4,0.4v9.7c0,0.1,0,0.2-0.1,0.2c-0.1,0-0.2,0-0.3-0.1l-8.2-9.8
						c-0.1-0.1-0.2-0.2-0.3-0.2c-0.1,0-0.2-0.1-0.4-0.1h-2.6c-0.3,0-0.4,0.1-0.4,0.4v15c0,0.3,0.1,0.4,0.5,0.4h2.2
						c0.3,0,0.4-0.1,0.4-0.4V42.6c0-0.1,0-0.1,0.1-0.1c0.1,0,0.1,0,0.2,0.1l8.7,10.3c0.1,0.1,0.2,0.2,0.3,0.2c0.1,0,0.2,0,0.3,0h2.1
						c0.1,0,0.3,0,0.3-0.1c0.1,0,0.1-0.1,0.1-0.2V37.7C133.3,37.5,133.3,37.4,133,37.4z"/>
					<path class="st0" d="M151.6,50.8h-9c-0.2,0-0.3-0.1-0.3-0.3v-3.9c0-0.2,0.1-0.3,0.4-0.3h5.8c0.1,0,0.3,0,0.3-0.1
						c0.1,0,0.1-0.1,0.1-0.2v-1.7c0-0.2-0.1-0.3-0.4-0.3h-5.8c-0.2,0-0.4-0.1-0.4-0.3V40c0-0.2,0.1-0.3,0.4-0.3h8.4
						c0.3,0,0.5-0.1,0.5-0.4v-1.6c0-0.2-0.1-0.3-0.3-0.3h-12.4c-0.3,0-0.4,0.1-0.4,0.4v15c0,0.3,0.1,0.4,0.5,0.4h12.5
						c0.1,0,0.3,0,0.3-0.1c0.1-0.1,0.1-0.1,0.1-0.2v-1.7C151.9,50.9,151.8,50.8,151.6,50.8z"/>
					<path class="st0" d="M167.6,45.8c0.6-0.2,1.2-0.5,1.7-0.8c0.5-0.4,1-0.8,1.3-1.4c0.3-0.6,0.5-1.2,0.5-1.9
						c0-1.4-0.6-2.4-1.8-3.2c-1.2-0.7-2.9-1.1-5.1-1.1h-7.7c-0.3,0-0.4,0.1-0.4,0.4v15c0,0.1,0,0.2,0.1,0.3c0.1,0.1,0.2,0.1,0.4,0.1
						h2.7c0.4,0,0.6-0.1,0.6-0.5v-6.1c0-0.1,0-0.1,0.1-0.2c0,0,0.1-0.1,0.3-0.1h3.1c0.4,0,0.6,0.1,0.7,0.3l2.9,6.2
						c0.1,0.3,0.3,0.4,0.5,0.4h3.1c0.1,0,0.3-0.1,0.3-0.2c0.1-0.1,0.1-0.2,0-0.3l-3.4-6.6C167.4,45.9,167.5,45.8,167.6,45.8z
						 M166.4,43.6c-0.6,0.4-1.5,0.5-2.7,0.5h-3.4c-0.3,0-0.4-0.1-0.4-0.3v-4c0-0.2,0.2-0.3,0.5-0.3h3.6c1,0,1.8,0.2,2.4,0.6
						c0.6,0.4,0.9,0.9,0.9,1.7C167.3,42.6,167,43.2,166.4,43.6z"/>
				</g>
			</g>
		</g>
		<g>
			<path class="st1" d="M44.9,76.1c-0.2,1.3-0.6,2.5-1.4,3.4s-1.7,1.7-3,2.1c-1.3,0.5-2.8,0.7-4.5,0.7c-1.8,0-3.4-0.4-4.8-1.1
				c-1.4-0.7-2.4-1.7-3.2-3.1c-0.7-1.3-1.1-2.8-1.1-4.6v-2.6c0-1.7,0.4-3.3,1.1-4.6c0.7-1.3,1.8-2.3,3.2-3.1c1.4-0.7,3-1.1,4.9-1.1
				c1.7,0,3.2,0.2,4.4,0.7s2.3,1.2,3,2.1c0.7,0.9,1.2,2.1,1.4,3.4h-1.7c-0.2-1.6-0.9-2.9-2.1-3.8c-1.2-0.9-2.8-1.3-5-1.3
				c-1.5,0-2.9,0.3-4,0.9c-1.1,0.6-2,1.5-2.6,2.6s-0.9,2.4-0.9,4v2.6c0,1.5,0.3,2.8,0.9,3.9c0.6,1.1,1.4,2,2.5,2.7
				c1.1,0.6,2.4,1,3.9,1c1.5,0,2.7-0.2,3.7-0.6c1-0.4,1.8-0.9,2.4-1.7c0.6-0.8,0.9-1.7,1.1-2.9H44.9z"/>
			<path class="st1" d="M63.8,82.1h-1.7V62.6h1.7V82.1z M76,82.1H63.2V81H76V82.1z"/>
			<path class="st1" d="M108.3,62.6v13.2c0,1.5-0.4,2.7-1.1,3.7c-0.8,1-1.8,1.7-3.1,2.2c-1.3,0.5-2.7,0.7-4.3,0.7
				c-1.6,0-3-0.2-4.3-0.7c-1.3-0.5-2.3-1.2-3-2.2c-0.7-1-1.1-2.2-1.1-3.7V62.6H93v13.2c0,1.2,0.3,2.2,0.9,3c0.6,0.8,1.4,1.4,2.4,1.8
				c1,0.4,2.2,0.6,3.5,0.6c1.3,0,2.5-0.2,3.5-0.6c1-0.4,1.8-1,2.4-1.8s0.9-1.8,0.9-3V62.6H108.3z"/>
			<path class="st1" d="M127.5,72.7l0-1.2h6c1.9,0,3.4-0.3,4.5-1c1-0.6,1.5-1.6,1.5-2.9c0-1.3-0.5-2.3-1.6-2.9
				c-1-0.6-2.6-0.9-4.7-0.9H128v18.3h-1.7V62.6h6.9c2.5,0,4.4,0.4,5.8,1.2c1.4,0.8,2.1,2.1,2.1,3.8c0,0.8-0.2,1.5-0.6,2.2
				c-0.4,0.6-1,1.2-1.8,1.6c-0.8,0.4-1.7,0.7-2.8,0.8l-1.3,0.5H127.5z M127,82.1l0.8-1.2h6.6c1.9,0,3.4-0.4,4.4-1.1
				c1.1-0.8,1.6-1.8,1.6-3.1c0-0.7-0.2-1.4-0.6-2c-0.4-0.6-1.1-1.1-1.9-1.5s-2-0.5-3.3-0.5h-4.2l0-1.2h5.9l0.3,0.4
				c1.1,0.1,2,0.4,2.8,0.8c0.8,0.4,1.5,1,1.9,1.7s0.7,1.4,0.7,2.3c0,1.8-0.7,3.1-2.1,4c-1.4,0.9-3.3,1.4-5.6,1.4H127z"/>
		</g>
		<g>
			<path class="st2" d="M167.5,70.3l-1.4,1.4l0.9,2.8l-0.8,0.8l-1.4-2.4l-1.7,1.7l0.1,0.9l-0.4,0.4l-0.8-1l-1-0.8l0.4-0.4l1,0
				L164,72l-2.5-1.4l0.8-0.8l2.7,1l1.4-1.4c0.3-0.3,0.6-0.3,0.9,0C167.7,69.6,167.7,70,167.5,70.3z"/>
			<path class="st0" d="M164.7,65.7c-3.6,0-6.5,2.9-6.5,6.5c0,3.6,2.9,6.5,6.5,6.5c3.6,0,6.5-2.9,6.5-6.5
				C171.1,68.6,168.2,65.7,164.7,65.7z M167.5,70.3l-1.4,1.4l0.9,2.8l-0.8,0.8l-1.4-2.4l-1.7,1.7l0.1,0.9l-0.4,0.4l-0.8-1l-1-0.8
				l0.4-0.4l1,0L164,72l-2.5-1.4l0.8-0.8l2.7,1l1.4-1.4c0.3-0.3,0.6-0.3,0.9,0C167.7,69.6,167.7,70,167.5,70.3z"/>
			<path class="st3" d="M167.5,70.3l-1.4,1.4l0.9,2.8l-0.8,0.8l-1.4-2.4l-1.7,1.7l0.1,0.9l-0.4,0.4l-0.8-1l-1-0.8l0.4-0.4l1,0
				L164,72l-2.5-1.4l0.8-0.8l2.7,1l1.4-1.4c0.3-0.3,0.6-0.3,0.9,0C167.7,69.6,167.7,70,167.5,70.3z"/>
		</g>
	</g>
	<g>
		<g>
			<g>
				<path class="st0" d="M75.3,92.8h3c-8.3,7.6-19,11.8-30.2,11.8c-24.7,0-44.9-20.1-44.9-44.9c0-24.8,20.2-44.9,44.9-44.9
					c11.4,0,22.2,4.3,30.6,12.1h-3C67.8,20.3,58,16.7,48,16.7c-23.7,0-42.9,19.3-42.9,43c0,23.7,19.2,43,42.9,43
					C58,102.6,67.7,99.1,75.3,92.8z"/>
			</g>
		</g>
	</g>
</g>
</svg>
