<svg width="177" height="90" viewBox="0 0 177 90" fill="none" xmlns="http://www.w3.org/2000/svg">
<g clip-path="url(#clip0_1402_13706)">
<path d="M39.9999 35.8H31.0999C30.8999 35.8 30.7999 35.7 30.7999 35.5V31.6C30.7999 31.4 30.8999 31.3 31.0999 31.3H36.9999C37.0999 31.3 37.2999 31.3 37.2999 31.2C37.3999 31.2 37.3999 31.1 37.3999 31V29.3C37.3999 29.1 37.2999 29 36.9999 29H31.1999C30.9999 29 30.8999 28.9 30.8999 28.7V25C30.8999 24.8 30.9999 24.7 31.2999 24.7H39.6999C39.9999 24.7 40.1999 24.6 40.1999 24.3V22.7C40.1999 22.5 40.0999 22.4 39.8999 22.4H27.3999C27.0999 22.4 26.9999 22.5 26.9999 22.8V37.8C26.9999 38.1 27.0999 38.2 27.4999 38.2H39.9999C40.0999 38.2 40.2999 38.2 40.2999 38.1C40.3999 38 40.3999 38 40.3999 37.9V36.2C40.3999 35.9 40.2999 35.8 39.9999 35.8Z" fill="white"/>
<path d="M59.6999 37.4L53.8999 30.1C53.7999 30 53.7999 29.9 53.7999 29.8C53.7999 29.7 53.7999 29.6 53.8999 29.5L59.1999 22.8C59.2999 22.7 59.2999 22.6 59.2999 22.5C59.2999 22.4 59.1999 22.4 58.9999 22.4H56.2999C56.0999 22.4 55.9999 22.4 55.8999 22.5C55.7999 22.6 55.6999 22.6 55.5999 22.7L51.9999 27.5C51.8999 27.6 51.7999 27.7 51.6999 27.7C51.5999 27.7 51.4999 27.6 51.3999 27.5L47.7999 22.7L47.5999 22.5C47.4999 22.5 47.2999 22.4 47.1999 22.4H43.9999C43.7999 22.4 43.6999 22.5 43.6999 22.6C43.6999 22.7 43.6999 22.8 43.6999 22.9L49.1999 29.8C49.2999 29.9 49.2999 30 49.3999 30.1C49.3999 30.2 49.3999 30.3 49.2999 30.4L43.6999 37.4C43.4999 37.7 43.3999 37.9 43.4999 38C43.5999 38.1 43.6999 38.1 43.9999 38.1H46.3999C46.5999 38.1 46.6999 38.1 46.7999 38C46.8999 38 46.9999 37.9 47.0999 37.8L51.0999 32.6C51.1999 32.4 51.3999 32.3 51.3999 32.3C51.4999 32.3 51.5999 32.4 51.6999 32.6L55.6999 37.8C55.7999 38 55.9999 38.1 56.2999 38.1H59.2999C59.4999 38.1 59.6999 38 59.7999 38C59.9999 37.9 59.9999 37.7 59.6999 37.4Z" fill="white"/>
<path d="M73.5 22.8C73.4 22.5 73.2 22.4 72.8 22.4H69.6C69.4 22.4 69.3 22.4 69.2 22.5C69.1 22.6 69.1 22.7 69 22.8L62.6 37.6C62.5 37.7 62.5 37.9 62.6 38C62.6 38.1 62.7 38.1 62.9 38.1H65.4C65.5 38.1 65.7 38.1 65.7 38C65.8 38 65.8 37.9 65.8 37.8L67.3 34.3C67.4 34.2 67.5 34.1 67.6 34.1H74.2C74.3 34.1 74.4 34.1 74.5 34.2L74.6 34.3L76.1 37.7C76.2 37.9 76.3 38 76.6 38H79.7C79.8 38 79.9 37.9 80 37.8C80.1 37.7 80.1 37.6 80 37.5L73.5 22.8ZM73.3 31.8H68.4C68.1 31.8 68.1 31.7 68.2 31.4L70.7 25.8C70.7 25.7 70.8 25.7 70.9 25.7C71 25.7 71 25.7 71.1 25.8L73.6 31.4C73.6 31.7 73.5 31.8 73.3 31.8Z" fill="white"/>
<path d="M103.5 22.4H98.9999C98.6999 22.4 98.5999 22.5 98.4999 22.8L94.0999 32.7C93.9999 32.8 93.9999 32.9 93.8999 32.9C93.7999 32.9 93.7999 32.9 93.6999 32.7L89.1999 22.7C89.1999 22.6 89.0999 22.5 89.0999 22.5C88.9999 22.5 88.8999 22.4 88.6999 22.4H84.3999C84.0999 22.4 83.9999 22.5 83.9999 22.8V37.7C83.9999 38 84.0999 38.1 84.4999 38.1H86.6999C86.8999 38.1 86.9999 38.1 87.0999 38C87.0999 37.9 87.1999 37.9 87.1999 37.7V26.8C87.1999 26.7 87.1999 26.7 87.2999 26.6C87.3999 26.6 87.3999 26.6 87.3999 26.7L92.1999 37.7C92.2999 37.9 92.4999 38 92.6999 38H94.4999C94.7999 38 94.8999 37.9 94.9999 37.7L99.7999 26.6C99.7999 26.5 99.8999 26.5 99.8999 26.5C99.8999 26.5 99.9999 26.5 99.9999 26.6V37.7C99.9999 37.8 99.9999 37.9 100.1 38C100.2 38.1 100.3 38.1 100.5 38.1H103.2C103.6 38.1 103.8 38 103.8 37.6V22.8C103.8 22.5 103.7 22.4 103.5 22.4Z" fill="white"/>
<path d="M112.5 22.4H109.5C109.2 22.4 109.1 22.5 109.1 22.8V37.8C109.1 37.9 109.1 38 109.2 38.1C109.3 38.2 109.4 38.2 109.6 38.2H112.3C112.5 38.2 112.7 38.2 112.8 38.1C112.9 38 112.9 37.9 112.9 37.7V22.8C112.8 22.5 112.7 22.4 112.5 22.4Z" fill="white"/>
<path d="M133 22.4H130.6C130.3 22.4 130.2 22.5 130.2 22.8V32.5C130.2 32.6 130.2 32.7 130.1 32.7C130 32.7 129.9 32.7 129.8 32.6L121.6 22.8C121.5 22.7 121.4 22.6 121.3 22.6C121.2 22.6 121.1 22.5 120.9 22.5H118.3C118 22.5 117.9 22.6 117.9 22.9V37.9C117.9 38.2 118 38.3 118.4 38.3H120.6C120.9 38.3 121 38.2 121 37.9V27.6C121 27.5 121 27.5 121.1 27.5C121.2 27.5 121.2 27.5 121.3 27.6L130 37.9C130.1 38 130.2 38.1 130.3 38.1C130.4 38.1 130.5 38.1 130.6 38.1H132.7C132.8 38.1 133 38.1 133 38C133.1 38 133.1 37.9 133.1 37.8V22.7C133.3 22.5 133.3 22.4 133 22.4Z" fill="white"/>
<path d="M151.6 35.8H142.6C142.4 35.8 142.3 35.7 142.3 35.5V31.6C142.3 31.4 142.4 31.3 142.7 31.3H148.5C148.6 31.3 148.8 31.3 148.8 31.2C148.9 31.2 148.9 31.1 148.9 31V29.3C148.9 29.1 148.8 29 148.5 29H142.7C142.5 29 142.3 28.9 142.3 28.7V25C142.3 24.8 142.4 24.7 142.7 24.7H151.1C151.4 24.7 151.6 24.6 151.6 24.3V22.7C151.6 22.5 151.5 22.4 151.3 22.4H138.9C138.6 22.4 138.5 22.5 138.5 22.8V37.8C138.5 38.1 138.6 38.2 139 38.2H151.5C151.6 38.2 151.8 38.2 151.8 38.1C151.9 38 151.9 38 151.9 37.9V36.2C151.9 35.9 151.8 35.8 151.6 35.8Z" fill="white"/>
<path d="M167.6 30.8C168.2 30.6 168.8 30.3 169.3 30C169.8 29.6 170.3 29.2 170.6 28.6C170.9 28 171.1 27.4 171.1 26.7C171.1 25.3 170.5 24.3 169.3 23.5C168.1 22.8 166.4 22.4 164.2 22.4H156.5C156.2 22.4 156.1 22.5 156.1 22.8V37.8C156.1 37.9 156.1 38 156.2 38.1C156.3 38.2 156.4 38.2 156.6 38.2H159.3C159.7 38.2 159.9 38.1 159.9 37.7V31.6C159.9 31.5 159.9 31.5 160 31.4C160 31.4 160.1 31.3 160.3 31.3H163.4C163.8 31.3 164 31.4 164.1 31.6L167 37.8C167.1 38.1 167.3 38.2 167.5 38.2H170.6C170.7 38.2 170.9 38.1 170.9 38C171 37.9 171 37.8 170.9 37.7L167.5 31.1C167.4 30.9 167.5 30.8 167.6 30.8ZM166.4 28.6C165.8 29 164.9 29.1 163.7 29.1H160.3C160 29.1 159.9 29 159.9 28.8V24.8C159.9 24.6 160.1 24.5 160.4 24.5H164C165 24.5 165.8 24.7 166.4 25.1C167 25.5 167.3 26 167.3 26.8C167.3 27.6 167 28.2 166.4 28.6Z" fill="white"/>
<path d="M44.9 61.1C44.7 62.4 44.3 63.6 43.5 64.5C42.7 65.4 41.8 66.2 40.5 66.6C39.2 67.1 37.7 67.3 36 67.3C34.2 67.3 32.6 66.9 31.2 66.2C29.8 65.5 28.8 64.5 28 63.1C27.3 61.8 26.9 60.3 26.9 58.5V55.9C26.9 54.2 27.3 52.6 28 51.3C28.7 50 29.8 49 31.2 48.2C32.6 47.5 34.2 47.1 36.1 47.1C37.8 47.1 39.3 47.3 40.5 47.8C41.7 48.3 42.8 49 43.5 49.9C44.2 50.8 44.7 52 44.9 53.3H43.2C43 51.7 42.3 50.4 41.1 49.5C39.9 48.6 38.3 48.2 36.1 48.2C34.6 48.2 33.2 48.5 32.1 49.1C31 49.7 30.1 50.6 29.5 51.7C28.9 52.8 28.6 54.1 28.6 55.7V58.3C28.6 59.8 28.9 61.1 29.5 62.2C30.1 63.3 30.9 64.2 32 64.9C33.1 65.5 34.4 65.9 35.9 65.9C37.4 65.9 38.6 65.7 39.6 65.3C40.6 64.9 41.4 64.4 42 63.6C42.6 62.8 42.9 61.9 43.1 60.7H44.9V61.1Z" fill="white"/>
<path d="M63.8 67.1H62.1V47.6H63.8V67.1ZM76 67.1H63.2V66H76V67.1Z" fill="white"/>
<path d="M108.3 47.6V60.8C108.3 62.3 107.9 63.5 107.2 64.5C106.4 65.5 105.4 66.2 104.1 66.7C102.8 67.2 101.4 67.4 99.8 67.4C98.2 67.4 96.8 67.2 95.5 66.7C94.2 66.2 93.2 65.5 92.5 64.5C91.8 63.5 91.4 62.3 91.4 60.8V47.6H93V60.8C93 62 93.3 63 93.9 63.8C94.5 64.6 95.3 65.2 96.3 65.6C97.3 66 98.5 66.2 99.8 66.2C101.1 66.2 102.3 66 103.3 65.6C104.3 65.2 105.1 64.6 105.7 63.8C106.3 63 106.6 62 106.6 60.8V47.6H108.3Z" fill="white"/>
<path d="M127.5 57.7V56.5H133.5C135.4 56.5 136.9 56.2 138 55.5C139 54.9 139.5 53.9 139.5 52.6C139.5 51.3 139 50.3 137.9 49.7C136.9 49.1 135.3 48.8 133.2 48.8H128V67.1H126.3V47.6H133.2C135.7 47.6 137.6 48 139 48.8C140.4 49.6 141.1 50.9 141.1 52.6C141.1 53.4 140.9 54.1 140.5 54.8C140.1 55.4 139.5 56 138.7 56.4C137.9 56.8 137 57.1 135.9 57.2L134.6 57.7H127.5ZM127 67.1L127.8 65.9H134.4C136.3 65.9 137.8 65.5 138.8 64.8C139.9 64 140.4 63 140.4 61.7C140.4 61 140.2 60.3 139.8 59.7C139.4 59.1 138.7 58.6 137.9 58.2C137.1 57.8 135.9 57.7 134.6 57.7H130.4V56.5H136.3L136.6 56.9C137.7 57 138.6 57.3 139.4 57.7C140.2 58.1 140.9 58.7 141.3 59.4C141.7 60.1 142 60.8 142 61.7C142 63.5 141.3 64.8 139.9 65.7C138.5 66.6 136.6 67.1 134.3 67.1H127V67.1Z" fill="white"/>
<path d="M164.7 50.7C161.1 50.7 158.2 53.6 158.2 57.2C158.2 60.8 161.1 63.7 164.7 63.7C168.3 63.7 171.2 60.8 171.2 57.2C171.1 53.6 168.2 50.7 164.7 50.7ZM167.5 55.3L166.1 56.7L167 59.5L166.2 60.3L164.8 57.9L163.1 59.6L163.2 60.5L162.8 60.9L162 59.9L161 59.1L161.4 58.7H162.4L164 57L161.5 55.6L162.3 54.8L165 55.8L166.4 54.4C166.7 54.1 167 54.1 167.3 54.4C167.7 54.6 167.7 55 167.5 55.3Z" fill="white"/>
<path d="M75.3 77.8H78.3C70 85.4 59.2999 89.6 48.0999 89.6C23.3999 89.6 3.19995 69.5 3.19995 44.7001C3.19995 19.9001 23.3999 -0.199951 48.0999 -0.199951C59.4999 -0.199951 70.3 4.10005 78.7 11.9H75.7C67.8 5.30005 58 1.70005 48 1.70005C24.2999 1.70005 5.09995 21 5.09995 44.7001C5.09995 68.4001 24.2999 87.7 48 87.7C58 87.6 67.7 84.1 75.3 77.8Z" fill="white"/>
</g>
<defs>
<clipPath id="clip0_1402_13706">
<rect width="177" height="90" fill="white"/>
</clipPath>
</defs>
</svg>
